<?xml version="1.0" standalone="no"?>
<!DOCTYPE svg PUBLIC "-//W3C//DTD SVG 20010904//EN"
 "http://www.w3.org/TR/2001/REC-SVG-20010904/DTD/svg10.dtd">
<svg version="1.0" xmlns="http://www.w3.org/2000/svg"
 width="1280.000000pt" height="827.000000pt" viewBox="0 0 1280.000000 827.000000"
 preserveAspectRatio="xMidYMid meet">
<metadata>
Created by potrace 1.15, written by Peter Selinger 2001-2017
</metadata>
<g transform="translate(0.000000,827.000000) scale(0.100000,-0.100000)"
fill="#f44336" stroke="none">
<path d="M1990 8263 c-319 -31 -567 -101 -835 -232 -645 -317 -1073 -916
-1145 -1602 -13 -128 -13 -4460 0 -4588 93 -878 768 -1595 1685 -1790 228 -48
-16 -46 4705 -46 4721 0 4477 -2 4705 46 349 74 674 228 945 446 89 72 248
232 321 323 229 285 378 649 418 1022 14 129 15 4453 1 4587 -63 592 -389
1119 -907 1468 -117 78 -359 198 -498 246 -112 38 -269 78 -420 104 -94 16
-357 18 -4520 19 -2431 0 -4436 -1 -4455 -3z m4428 -2567 c895 -513 1845
-1058 2112 -1211 465 -266 580 -334 580 -345 0 -3 -132 -81 -293 -175 -160
-93 -413 -240 -562 -326 -1804 -1048 -3425 -1987 -3446 -1996 l-26 -11 -6 886
c-11 1428 -9 4112 3 4112 6 0 743 -420 1638 -934z"/>
</g>
</svg>
